<svg width="222" height="222" viewBox="0 0 222 222" fill="none" xmlns="http://www.w3.org/2000/svg">
<rect x="79.0679" y="127.861" width="68.7546" height="22.3452" rx="11.1726" transform="rotate(-45 79.0679 127.861)" fill="#2C2C2C"/>
<rect x="94.9395" y="79.3594" width="68.7546" height="22.3452" rx="11.1726" transform="rotate(45 94.9395 79.3594)" fill="#2C2C2C"/>
<rect x="168.641" y="98.7505" width="34.3773" height="25.783" rx="12.8915" fill="#2C2C2C"/>
<path d="M179.975 111.116C179.975 149.053 149.22 179.808 111.282 179.808C73.3441 179.808 42.5894 149.053 42.5894 111.116C42.5894 73.1776 73.3441 42.4229 111.282 42.4229C149.22 42.4229 179.975 73.1776 179.975 111.116ZM63.1972 111.116C63.1972 137.672 84.7255 159.2 111.282 159.2C137.839 159.2 159.367 137.672 159.367 111.116C159.367 84.559 137.839 63.0306 111.282 63.0306C84.7255 63.0306 63.1972 84.559 63.1972 111.116Z" fill="#2C2C2C"/>
<rect x="19.5947" y="98.8394" width="34.3773" height="25.783" rx="12.8915" fill="#2C2C2C"/>
</svg>
