<svg width="222" height="223" viewBox="0 0 222 223" fill="none" xmlns="http://www.w3.org/2000/svg">
<rect y="0.98584" width="221.734" height="221.734" rx="34.3773" fill="#709FFC" fill-opacity="0.4"/>
<rect x="211.75" y="82.606" width="10.1408" height="25.5485" fill="#6C99F0"/>
<rect x="211.75" y="46.8384" width="10.1408" height="25.5485" fill="#6C99F0"/>
<rect x="211.75" y="154.142" width="10.1408" height="25.5485" fill="#6C99F0"/>
<rect x="211.75" y="118.374" width="10.1408" height="25.5485" fill="#6C99F0"/>
<rect x="80.6523" y="11.4429" width="10.2194" height="25.352" transform="rotate(-90 80.6523 11.4429)" fill="#6C99F0"/>
<rect x="45.1597" y="11.4429" width="10.2194" height="25.352" transform="rotate(-90 45.1597 11.4429)" fill="#6C99F0"/>
<rect x="151.638" y="11.4429" width="10.2194" height="25.352" transform="rotate(-90 151.638 11.4429)" fill="#6C99F0"/>
<rect x="116.145" y="11.4429" width="10.2194" height="25.352" transform="rotate(-90 116.145 11.4429)" fill="#6C99F0"/>
<rect x="80.6523" y="222.81" width="10.2194" height="25.352" transform="rotate(-90 80.6523 222.81)" fill="#6C99F0"/>
<rect x="45.1597" y="222.81" width="10.2194" height="25.352" transform="rotate(-90 45.1597 222.81)" fill="#6C99F0"/>
<rect x="151.638" y="222.81" width="10.2194" height="25.352" transform="rotate(-90 151.638 222.81)" fill="#6C99F0"/>
<rect x="116.145" y="222.81" width="10.2194" height="25.352" transform="rotate(-90 116.145 222.81)" fill="#6C99F0"/>
<rect y="82.606" width="10.1408" height="25.5485" fill="#6C99F0"/>
<rect y="46.8384" width="10.1408" height="25.5485" fill="#6C99F0"/>
<rect y="154.142" width="10.1408" height="25.5485" fill="#6C99F0"/>
<rect y="118.374" width="10.1408" height="25.5485" fill="#6C99F0"/>
<rect x="82.3633" y="129.249" width="68.7546" height="22.3452" rx="11.1726" transform="rotate(-45 82.3633 129.249)" fill="#00256F"/>
<rect x="98.2349" y="80.7466" width="68.7546" height="22.3452" rx="11.1726" transform="rotate(45 98.2349 80.7466)" fill="#00256F"/>
<rect x="171.936" y="100.138" width="34.3773" height="25.783" rx="12.8915" fill="#00256F"/>
<path d="M183.271 112.503C183.271 150.441 152.516 181.195 114.578 181.195C76.64 181.195 45.8853 150.441 45.8853 112.503C45.8853 74.5648 76.64 43.8101 114.578 43.8101C152.516 43.8101 183.271 74.5648 183.271 112.503ZM66.493 112.503C66.493 139.059 88.0214 160.588 114.578 160.588C141.134 160.588 162.663 139.059 162.663 112.503C162.663 85.9462 141.134 64.4179 114.578 64.4179C88.0214 64.4179 66.493 85.9462 66.493 112.503Z" fill="#00256F"/>
<rect x="22.8906" y="100.227" width="34.3773" height="25.783" rx="12.8915" fill="#00256F"/>
</svg>
