<svg width="222" height="222" viewBox="0 0 222 222" fill="none" xmlns="http://www.w3.org/2000/svg">
<rect x="0.169922" y="0.117676" width="221.734" height="221.734" rx="34.3773" fill="#709FFC" fill-opacity="0.4"/>
<rect x="14.48" y="110.101" width="68.7546" height="25.783" rx="12.8915" fill="#00256F"/>
<rect width="92.8187" height="25.783" rx="12.8915" transform="matrix(0.819152 -0.573576 0.572883 0.819638 52.7603 119.519)" fill="#00256F"/>
<rect x="131.019" y="110.101" width="77.3489" height="25.783" rx="12.8915" fill="#00256F"/>
<rect x="211.758" y="81.4644" width="10.133" height="25.5742" fill="#6C99F0"/>
<rect x="211.758" y="45.6606" width="10.133" height="25.5742" fill="#6C99F0"/>
<rect x="211.758" y="153.072" width="10.133" height="25.5742" fill="#6C99F0"/>
<rect x="211.758" y="117.268" width="10.133" height="25.5742" fill="#6C99F0"/>
<rect x="80.7612" y="10.2295" width="10.2297" height="25.3324" transform="rotate(-90 80.7612 10.2295)" fill="#6C99F0"/>
<rect x="45.2959" y="10.2295" width="10.2297" height="25.3324" transform="rotate(-90 45.2959 10.2295)" fill="#6C99F0"/>
<rect x="151.692" y="10.2295" width="10.2297" height="25.3324" transform="rotate(-90 151.692 10.2295)" fill="#6C99F0"/>
<rect x="116.227" y="10.2295" width="10.2297" height="25.3324" transform="rotate(-90 116.227 10.2295)" fill="#6C99F0"/>
<rect x="80.7612" y="221.81" width="10.2297" height="25.3324" transform="rotate(-90 80.7612 221.81)" fill="#6C99F0"/>
<rect x="45.2959" y="221.81" width="10.2297" height="25.3324" transform="rotate(-90 45.2959 221.81)" fill="#6C99F0"/>
<rect x="151.692" y="221.81" width="10.2297" height="25.3324" transform="rotate(-90 151.692 221.81)" fill="#6C99F0"/>
<rect x="116.227" y="221.81" width="10.2297" height="25.3324" transform="rotate(-90 116.227 221.81)" fill="#6C99F0"/>
<rect x="0.170898" y="81.4648" width="10.133" height="25.5742" fill="#6C99F0"/>
<rect x="0.170898" y="45.6611" width="10.133" height="25.5742" fill="#6C99F0"/>
<rect x="0.170898" y="153.073" width="10.133" height="25.5742" fill="#6C99F0"/>
<rect x="0.170898" y="117.269" width="10.133" height="25.5742" fill="#6C99F0"/>
</svg>
