<svg width="221" height="220" viewBox="0 0 221 220" fill="none" xmlns="http://www.w3.org/2000/svg">
<rect x="211" y="80" width="10" height="25" fill="#6C99F0"/>
<rect x="211" y="45" width="10" height="25" fill="#6C99F0"/>
<rect x="211" y="150" width="10" height="25" fill="#6C99F0"/>
<rect x="211" y="115" width="10" height="25" fill="#6C99F0"/>
<rect x="80" y="10" width="10" height="25" transform="rotate(-90 80 10)" fill="#6C99F0"/>
<rect x="45" y="10" width="10" height="25" transform="rotate(-90 45 10)" fill="#6C99F0"/>
<rect x="150" y="10" width="10" height="25" transform="rotate(-90 150 10)" fill="#6C99F0"/>
<rect x="115" y="10" width="10" height="25" transform="rotate(-90 115 10)" fill="#6C99F0"/>
<rect x="80" y="219" width="10" height="25" transform="rotate(-90 80 219)" fill="#6C99F0"/>
<rect x="45" y="219" width="10" height="25" transform="rotate(-90 45 219)" fill="#6C99F0"/>
<rect x="150" y="219" width="10" height="25" transform="rotate(-90 150 219)" fill="#6C99F0"/>
<rect x="115" y="219" width="10" height="25" transform="rotate(-90 115 219)" fill="#6C99F0"/>
<rect y="80" width="10" height="25" fill="#6C99F0"/>
<rect y="45" width="10" height="25" fill="#6C99F0"/>
<rect y="150" width="10" height="25" fill="#6C99F0"/>
<rect y="115" width="10" height="25" fill="#6C99F0"/>
<rect x="1" width="220" height="220" rx="40" fill="#709FFC" fill-opacity="0.4"/>
<rect x="33.6211" y="161.727" width="79.9424" height="14.3646" rx="7.18232" fill="#548DFF"/>
<path d="M61.7264 85.0986C68.6068 93.2983 78.0925 93.6876 87.712 92.826C75.5283 103.049 63.3429 113.274 51.1575 123.499C45.855 127.948 37.6864 132.051 34.8142 138.718C31.8975 145.481 36.8372 153.393 43.794 155.183C51.8932 157.269 59.0611 149.552 64.4409 144.85C71.0664 139.058 77.5187 133.084 84.2603 127.427C83.1044 136.272 96.1682 143.226 103.027 138.601C101.638 149.438 114.682 151.921 121.466 147.662C121.01 151.342 128.349 154.343 131.015 154.607C136.177 155.122 141.113 152.503 145.147 149.72C153.236 144.136 159.595 136.002 166.367 128.916C173.201 121.768 180.143 114.021 184.624 105.066C189.07 96.1754 186.048 88.0322 180.603 79.8228C174.063 69.9632 166 61.5488 156.481 54.5885C145.185 46.3263 134.512 49.7944 122.837 54.4882C110.151 59.5891 97.2898 64.2558 83.8948 67.3644C75.6844 69.2701 49.5873 70.6318 61.7264 85.0986Z" fill="#00256F"/>
</svg>
