<svg width="645" height="645" viewBox="0 0 645 645" fill="none" xmlns="http://www.w3.org/2000/svg">
<rect width="645" height="645" rx="100" fill="white"/>
<rect x="230" y="371.421" width="200" height="65" rx="32.5" transform="rotate(-45 230 371.421)" fill="#2C2C2C"/>
<rect x="276.169" y="230.334" width="200" height="65" rx="32.5" transform="rotate(45 276.169 230.334)" fill="#2C2C2C"/>
<rect x="490.558" y="286.741" width="100" height="75" rx="37.5" fill="#2C2C2C"/>
<path d="M523.528 322.709C523.528 433.066 434.065 522.529 323.708 522.529C213.351 522.529 123.888 433.066 123.888 322.709C123.888 212.352 213.351 122.889 323.708 122.889C434.065 122.889 523.528 212.352 523.528 322.709ZM183.834 322.709C183.834 399.959 246.458 462.583 323.708 462.583C400.958 462.583 463.582 399.959 463.582 322.709C463.582 245.459 400.958 182.835 323.708 182.835C246.458 182.835 183.834 245.459 183.834 322.709Z" fill="#2C2C2C"/>
<rect x="57" y="287" width="100" height="75" rx="37.5" fill="#2C2C2C"/>
</svg>
