<svg width="55" height="42" viewBox="0 0 55 42" fill="none" xmlns="http://www.w3.org/2000/svg">
<rect width="55" height="42" rx="5" fill="#5F5F5F"/>
<path d="M19.0987 14.3377C18.62 13.8395 18.635 13.0472 19.1325 12.5678L24.8662 7.04268C26.2475 5.65828 28.735 5.64076 30.1525 7.06021L35.8675 12.5678C36.365 13.0472 36.38 13.8395 35.9013 14.3377C35.6563 14.5931 35.3288 14.722 35 14.722C34.6875 14.722 34.375 14.6056 34.1337 14.3728L28.75 9.18313V25.9875C28.75 26.6784 28.19 27.2392 27.5 27.2392C26.81 27.2392 26.25 26.6784 26.25 25.9875V9.18313L20.8662 14.3728C20.37 14.8522 19.58 14.8359 19.0987 14.3377ZM38.4375 15.9737C37.8475 15.9737 37.51 16.2579 37.5 16.2666C36.0325 17.5584 33.6863 17.4169 32.2375 16.02L31.25 15.0687V25.9887C31.25 28.0591 29.5675 29.7439 27.5 29.7439C25.4325 29.7439 23.75 28.0603 23.75 25.9887V15.0675L22.7625 16.0188C21.3125 17.4157 18.9675 17.5571 17.5 16.2654C17.49 16.2566 17.1525 15.9725 16.5625 15.9725C15.7 15.9725 15 16.6734 15 17.5371V29.7414C15 33.1974 17.7988 36 21.25 36H33.75C37.2012 36 40 33.1974 40 29.7414V17.5384C40 16.6747 39.3 15.9737 38.4375 15.9737Z" fill="white"/>
</svg>
