<svg width="55" height="42" viewBox="0 0 55 42" fill="none" xmlns="http://www.w3.org/2000/svg">
<rect x="55" y="42" width="55" height="42" rx="5" transform="rotate(-180 55 42)" fill="#5F5F5F"/>
<path fill-rule="evenodd" clip-rule="evenodd" d="M8 14C8 10.134 11.134 7 15 7H39C42.866 7 46 10.134 46 14V27C46 30.866 42.866 34 39 34H15C11.134 34 8 30.866 8 27V14ZM12 16C12 12.6863 14.6863 10 18 10H36C39.3137 10 42 12.6863 42 16V25C42 27.5887 40.3605 29.7946 38.0632 30.6358L34.232 24C33.4622 22.6667 31.5378 22.6667 30.768 24L28.5207 27.8923L22.2321 17C21.4623 15.6667 19.5377 15.6667 18.7679 17L12.6172 27.6535C12.222 26.8535 12 25.9527 12 25V16ZM33.5 20C35.433 20 37 18.433 37 16.5C37 14.567 35.433 13 33.5 13C31.567 13 30 14.567 30 16.5C30 18.433 31.567 20 33.5 20Z" fill="#D9D9D9"/>
</svg>
