<svg width="220" height="220" viewBox="0 0 220 220" fill="none" xmlns="http://www.w3.org/2000/svg">
<rect width="220" height="220" rx="30" fill="white"/>
<rect x="38.6201" y="161.727" width="79.9424" height="14.3646" rx="7.18232" fill="#FFAD9B"/>
<path d="M66.7264 85.0986C73.6068 93.2983 83.0925 93.6876 92.712 92.826C80.5283 103.049 68.3429 113.274 56.1575 123.499C50.855 127.948 42.6864 132.051 39.8142 138.718C36.8975 145.481 41.8372 153.393 48.794 155.183C56.8932 157.269 64.0611 149.552 69.4409 144.85C76.0664 139.058 82.5187 133.084 89.2603 127.427C88.1044 136.272 101.168 143.226 108.027 138.601C106.638 149.438 119.682 151.921 126.466 147.662C126.01 151.342 133.349 154.343 136.015 154.607C141.177 155.122 146.113 152.503 150.147 149.72C158.236 144.136 164.595 136.002 171.367 128.916C178.201 121.768 185.143 114.021 189.624 105.066C194.07 96.1754 191.048 88.0322 185.603 79.8228C179.063 69.9632 171 61.5488 161.481 54.5885C150.185 46.3263 139.512 49.7944 127.837 54.4882C115.151 59.5891 102.29 64.2558 88.8948 67.3644C80.6844 69.2701 54.5873 70.6318 66.7264 85.0986Z" fill="#868686"/>
</svg>
