<svg width="305" height="305" viewBox="0 0 305 305" fill="none" xmlns="http://www.w3.org/2000/svg">
<rect width="305" height="305" rx="79.6935" fill="#0B007F"/>
<path d="M202.661 168.471C207.373 150.885 225.45 140.449 243.036 145.161C244.794 145.632 245.838 147.44 245.367 149.199L231.289 201.738C226.577 219.324 208.5 229.761 190.914 225.049C189.156 224.577 188.112 222.77 188.583 221.011L202.661 168.471Z" fill="white"/>
<path d="M116.939 115.554C121.651 97.9676 139.727 87.5312 157.313 92.2434C159.072 92.7146 160.115 94.5222 159.644 96.2808L131.552 201.121C126.84 218.707 108.764 229.143 91.1778 224.431C89.4192 223.96 88.3756 222.152 88.8468 220.394L116.939 115.554Z" fill="white"/>
<path d="M36.277 96.6185C35.8058 94.8599 36.8495 93.0523 38.6081 92.5811C56.1941 87.8689 74.2704 98.3052 78.9826 115.891L107.139 220.971C107.61 222.73 106.566 224.537 104.808 225.009C87.2215 229.721 69.1453 219.284 64.4331 201.698L36.277 96.6185Z" fill="url(#paint0_linear_294_1112)"/>
<path d="M139.625 96.6185C139.153 94.8599 140.197 93.0523 141.956 92.5811C159.542 87.8689 177.618 98.3052 182.33 115.891L210.486 220.971C210.957 222.73 209.914 224.537 208.155 225.009C190.569 229.721 172.493 219.284 167.781 201.698L139.625 96.6185Z" fill="white"/>
<circle cx="238.479" cy="102.18" r="27.1967" transform="rotate(15 238.479 102.18)" fill="white"/>
<path d="M245.52 75.9099C260.028 79.7975 268.638 94.7104 264.75 109.219C260.863 123.727 245.95 132.337 231.442 128.45L245.52 75.9099Z" fill="#FF8C73"/>
<defs>
<linearGradient id="paint0_linear_294_1112" x1="87.0975" y1="192.835" x2="35.4238" y2="84.0489" gradientUnits="userSpaceOnUse">
<stop stop-color="white"/>
<stop offset="1" stop-color="#D9D9D9" stop-opacity="0"/>
</linearGradient>
</defs>
</svg>
